<?xml version="1.0" standalone="no"?>
<!DOCTYPE svg PUBLIC "-//W3C//DTD SVG 20010904//EN"
 "http://www.w3.org/TR/2001/REC-SVG-20010904/DTD/svg10.dtd">
<svg version="1.0" xmlns="http://www.w3.org/2000/svg"
 width="512.000000pt" height="512.000000pt" viewBox="0 0 512.000000 512.000000"
 preserveAspectRatio="xMidYMid meet">

<g transform="translate(0.000000,512.000000) scale(0.100000,-0.100000)"
fill="#000000" stroke="none">
<path d="M440 5110 c-72 -12 -116 -35 -173 -89 -58 -55 -98 -125 -125 -223
-16 -59 -17 -202 -17 -2233 0 -2031 1 -2174 17 -2233 50 -180 140 -282 280
-318 104 -27 232 -3 354 66 63 35 2900 1987 2962 2037 151 123 231 268 234
422 1 99 -10 147 -54 241 -75 156 -34 126 -1643 1231 -797 548 -1475 1010
-1505 1027 -108 60 -237 88 -330 72z"/>
<path d="M4522 5105 c-87 -27 -156 -95 -188 -182 -11 -32 -13 -432 -14 -2360
0 -2295 0 -2323 20 -2375 24 -65 85 -128 155 -160 44 -20 66 -23 175 -23 111
0 130 3 172 23 55 27 103 78 132 141 l21 46 0 2345 0 2345 -24 53 c-30 67 -98
127 -164 147 -63 19 -226 19 -285 0z"/>
</g>
</svg>
