<?xml version="1.0" standalone="no"?>
<!DOCTYPE svg PUBLIC "-//W3C//DTD SVG 20010904//EN"
 "http://www.w3.org/TR/2001/REC-SVG-20010904/DTD/svg10.dtd">
<svg version="1.0" xmlns="http://www.w3.org/2000/svg"
 width="512.000000pt" height="512.000000pt" viewBox="0 0 512.000000 512.000000"
 preserveAspectRatio="xMidYMid meet">

<g transform="translate(0.000000,512.000000) scale(0.100000,-0.100000)"
fill="#000000" stroke="none">
<path d="M2370 5114 c-19 -2 -78 -9 -130 -15 -791 -90 -1522 -586 -1924 -1305
-146 -262 -252 -588 -297 -914 -18 -125 -18 -515 0 -640 105 -762 511 -1409
1146 -1826 776 -510 1793 -550 2615 -104 125 68 154 91 179 143 43 89 15 193
-68 252 -36 25 -52 30 -104 30 -38 0 -73 -6 -92 -16 -168 -91 -236 -124 -330
-162 -323 -130 -670 -180 -1011 -146 -854 84 -1578 664 -1843 1475 -148 452
-148 896 0 1348 214 653 723 1162 1378 1376 449 147 894 147 1345 -1 488 -160
893 -481 1171 -929 162 -262 273 -595 305 -919 45 -460 -70 -940 -326 -1351
-56 -90 -59 -98 -59 -160 0 -78 26 -127 88 -168 56 -37 153 -39 210 -3 60 37
182 235 276 449 469 1060 169 2297 -734 3025 -364 293 -768 469 -1245 542
-100 15 -472 28 -550 19z"/>
<path d="M2020 3544 c-144 -39 -257 -154 -295 -299 -23 -88 -23 -1281 0 -1370
32 -125 136 -241 255 -286 82 -31 190 -35 267 -11 39 12 264 137 595 328 579
335 614 360 664 469 55 120 55 250 0 370 -50 109 -85 134 -664 469 -331 191
-556 316 -593 327 -72 22 -153 23 -229 3z m611 -670 c272 -157 501 -292 509
-300 12 -12 12 -16 0 -28 -31 -29 -1005 -586 -1017 -582 -10 4 -13 121 -13
594 0 324 3 592 7 595 3 4 9 7 13 7 4 0 229 -129 501 -286z"/>
</g>
</svg>
