<?xml version="1.0" standalone="no"?>
<!DOCTYPE svg PUBLIC "-//W3C//DTD SVG 20010904//EN"
 "http://www.w3.org/TR/2001/REC-SVG-20010904/DTD/svg10.dtd">
<svg version="1.0" xmlns="http://www.w3.org/2000/svg"
 width="512.000000pt" height="512.000000pt" viewBox="0 0 512.000000 512.000000"
 preserveAspectRatio="xMidYMid meet">

<g transform="translate(0.000000,512.000000) scale(0.100000,-0.100000)"
fill="#000000" stroke="none">
<path d="M305 5096 c-41 -17 -75 -41 -106 -75 -87 -93 -79 145 -79 -2462 0
-2293 0 -2319 20 -2372 24 -63 80 -123 147 -158 44 -22 59 -24 188 -24 126 0
145 2 193 24 70 31 137 107 157 175 13 45 15 332 13 2376 l-3 2325 -21 45
c-27 57 -83 113 -143 142 -39 20 -65 23 -176 26 -119 2 -135 0 -190 -22z"/>
<path d="M4590 5114 c-68 -12 -122 -30 -190 -66 -126 -67 -2975 -2035 -3045
-2104 -182 -178 -224 -416 -112 -629 71 -135 72 -135 1620 -1200 799 -550
1482 -1013 1535 -1041 242 -128 447 -82 543 122 62 129 59 11 59 2357 -1 2315
1 2232 -53 2352 -62 133 -146 196 -282 208 -27 3 -61 3 -75 1z"/>
</g>
</svg>
